PathFileType	4	(X/Y/Z)	Walk4.trc
DataRate	CameraRate	NumFrames	NumMarkers	Units	OrigDataRate	OrigDataStartFrame	OrigNumFrames
200.000000	200.000000	4	69	mm	200.000000	805	1013
Frame#	Times		LFHD		LowerBodyModelVer		RCAR		RFHD		RWRU		RACR1		RFA1		RASI		LElbow		LTH3		LTB1		RUA1		LMT1		LACR1		LLFC		LMT5		LTH4		LTH2		LUA1		RTH2		LTB3		LTB2		LTB4		LToe		STRN		RBHD		CLAV		RTH4		RLFC		LLMAL		LASI		PELOrigin		RTH3		LWRU		RBack		LTH1		LFA1		C7		RPSI		LBHD		RMT1		RCAL		RMT5		LPSI		RTH1		RTB2		RToe		LHJC		MidPelvis		OPelvis		RHJC		SACR		XPelvis		YPelvis		ZPelvis		LCAR		RLMAL		LWRR		RWRR		RElbow		RTB1		RTB3		RTB4		RMMAL		LMMAL		T10		RElbowM		LCAL		LElbowM
			X1	Y1	Z1	X2	Y2	Z2	X3	Y3	Z3	X4	Y4	Z4	X5	Y5	Z5	X6	Y6	Z6	X7	Y7	Z7	X8	Y8	Z8	X9	Y9	Z9	X10	Y10	Z10	X11	Y11	Z11	X12	Y12	Z12	X13	Y13	Z13	X14	Y14	Z14	X15	Y15	Z15	X16	Y16	Z16	X17	Y17	Z17	X18	Y18	Z18	X19	Y19	Z19	X20	Y20	Z20	X21	Y21	Z21	X22	Y22	Z22	X23	Y23	Z23	X24	Y24	Z24	X25	Y25	Z25	X26	Y26	Z26	X27	Y27	Z27	X28	Y28	Z28	X29	Y29	Z29	X30	Y30	Z30	X31	Y31	Z31	X32	Y32	Z32	X33	Y33	Z33	X34	Y34	Z34	X35	Y35	Z35	X36	Y36	Z36	X37	Y37	Z37	X38	Y38	Z38	X39	Y39	Z39	X40	Y40	Z40	X41	Y41	Z41	X42	Y42	Z42	X43	Y43	Z43	X44	Y44	Z44	X45	Y45	Z45	X46	Y46	Z46	X47	Y47	Z47	X48	Y48	Z48	X49	Y49	Z49	X50	Y50	Z50	X51	Y51	Z51	X52	Y52	Z52	X53	Y53	Z53	X54	Y54	Z54	X55	Y55	Z55	X56	Y56	Z56	X57	Y57	Z57	X58	Y58	Z58	X59	Y59	Z59	X60	Y60	Z60	X61	Y61	Z61	X62	Y62	Z62	X63	Y63	Z63	X64	Y64	Z64	X65	Y65	Z65	X66	Y66	Z66	X67	Y67	Z67	X68	Y68	Z68	X69	Y69	Z69

805	4.025	141.44	1558.3	27.732	9	2014	4	-23.874	740.54	369.52	141.37	1556.2	125.44	-61.441	797.08	384.31	0.9604	1344	244.01	-34.649	903.38	362.56	123.43	939.05	231.54	47.614	1061.8	-252.57	-11.73	551.05	-130.23	-103.47	328.43	-20.433	-46.588	1199.3	323.3	-180.89	36.485	-7.1241	35.885	1342.9	-114.95	-61.595	487.94	-118.14	-200.94	24.978	-93.691	17.298	629.05	-157.21	68.035	619.13	-126.31	57.686	1202.7	-197.26	172.77	640.1	229.42	-196.84	185.38	-34.482	-151.2	264.79	-90.768	-153.19	258.92	-28.451	-141.22	28.367	-6.6454	160.42	1206.1	76.217	-29.197	1549.3	133.57	91.263	1319.7	68.09	116.97	625.19	246.1	161.24	455.66	214.69	-281.02	119.89	-95.167	116.85	954.38	-132.01	120.14	946.71	49.764	134.97	541.75	228.38	215.95	884.83	-276.43	-130.4	1279.7	156.51	49.648	704.03	-182.74	161.49	989.34	-248.57	-73.237	1389.2	69.651	-126.12	945.97	94.532	-9.6043	1540.7	-0.74679	350.26	42.611	115.35	164.1	25.957	155.54	340.2	30.293	203.81	-120.06	955.51	-36.422	110.39	706.55	267.74	222.66	277.68	198.37	391.06	45.394	119.92	32.484	836.6	-77.159	-1.4758	948.73	39.409	120.14	946.71	49.764	36.958	826.18	170.06	-123.09	950.74	29.055	200.12	945.74	48.275	121.17	1026.6	53.113	121.58	943.35	129.68	270.25	864.35	-258.47	214.76	64.043	200.47	236.48	901.4	-206.13	-14.979	799.3	325.53	-92.435	1035.5	349.5	235.74	359.14	131.69	233.65	174.58	121.12	234.69	266.86	126.4	232.52	75.196	115.44	-268.61	121.72	-10.6	-107.1	1057.1	43.205	-119.57	1024.2	261.65	-346.78	109.72	-53.119	14.888	1010.2	-163.18
806	4.03	145.94	1559.2	29.507	9	2014	4	-17.626	740.71	370.78	146.03	1557.2	127.21	-55.292	797.18	385.56	6.0378	1344.4	245.95	-28.644	903.52	363.87	129.1	939.92	232.14	50.612	1062.8	-250.75	-4.8902	551.37	-130.51	-97.597	328.64	-21.046	-41.04	1199.4	325.01	-180.5	36.531	-7.0651	40.472	1344.2	-113.08	-54.522	488.08	-118.63	-200.65	25.222	-93.48	23.661	629.7	-157.11	74.408	619.98	-126.12	60.978	1203.8	-195.78	177.53	641.06	230.03	-192.75	186.78	-34.997	-146.32	265.68	-91.343	-148.12	259.72	-29.013	-141.39	28.302	-6.5492	165.35	1207.2	78.272	-24.518	1550.3	135.63	96.046	1320.7	70.02	121.72	626.4	246.9	165.33	456.35	215.35	-278.14	122.59	-95.397	122.11	955.67	-130.64	125.61	947.8	50.754	139.43	542.87	229.34	218.65	885.38	-274.77	-125.37	1280.2	158.54	55.515	704.97	-182.31	164.53	990.14	-246.97	-68.44	1390	71.844	-120.86	946.97	95.236	-5.1408	1541.6	1.2649	350.51	41.643	115.38	164.23	26.24	155.77	340.58	29.651	204.21	-114.72	956.32	-35.793	115.7	707.77	268.24	225.06	277.58	198.82	391.44	43.959	119.92	38.08	837.99	-75.953	3.9086	949.72	40.238	125.61	947.8	50.754	42.831	827.28	170.74	-117.79	951.65	29.721	205.59	946.9	49.175	126.57	1027.7	54.206	127.14	944.33	130.66	272.98	864.85	-256.98	215.23	64.113	200.73	239.54	902.22	-204.66	-8.8578	799.48	326.76	-86.537	1035.6	350.93	238.82	358.99	132.27	234.99	174.53	121.45	236.91	266.76	126.86	232.92	75.206	115.63	-265.31	124.22	-10.901	-101.97	1057.9	44.21	-113.81	1024.3	263.13	-343.64	114.07	-53.011	18.495	1011.4	-160.96
807	4.035	150.45	1560.1	31.282	9	2014	4	-11.345	740.97	372.05	150.7	1558.2	128.98	-49.103	797.37	386.83	11.117	1344.9	247.86	-22.609	903.75	365.18	134.77	940.91	232.71	53.555	1063.8	-248.9	2.0964	551.74	-130.87	-91.441	328.84	-21.777	-35.466	1199.7	326.71	-180.08	36.599	-6.9841	45.065	1345.6	-111.19	-47.26	488.23	-119.2	-200.3	25.537	-93.249	30.125	630.41	-157.05	80.888	620.91	-125.98	64.272	1205	-194.28	182.21	642.01	230.64	-188.41	188.22	-35.548	-141.22	266.61	-91.983	-142.79	260.55	-29.645	-141.56	28.237	-6.4497	170.27	1208.3	80.357	-19.827	1551.3	137.69	100.83	1321.8	71.951	126.42	627.6	247.76	169.24	457	215.99	-275.04	125.38	-95.598	127.33	957.07	-129.21	131.05	948.99	51.747	143.81	543.98	230.29	221.2	885.92	-273.14	-120.32	1280.7	160.54	61.44	706.01	-181.9	167.48	990.97	-245.39	-63.637	1390.8	74.017	-115.64	948.03	95.902	-0.66541	1542.5	3.2726	350.7	40.809	115.38	164.34	26.472	155.98	340.9	29.15	204.56	-109.37	957.2	-35.202	120.89	708.99	268.79	227.23	277.46	199.3	391.73	42.708	119.89	43.681	839.49	-74.695	9.273	950.8	41.049	131.05	948.99	51.747	48.739	828.51	171.41	-112.51	952.61	30.35	211.03	948.19	50.068	131.93	1028.9	55.297	132.69	945.43	131.65	275.55	865.29	-255.51	215.63	64.183	200.95	242.47	903.01	-203.23	-2.7041	799.75	328	-80.622	1035.7	352.35	241.78	358.84	132.95	236.23	174.5	121.8	239.01	266.67	127.38	233.25	75.237	115.79	-261.74	126.79	-11.184	-96.846	1058.8	45.22	-108.04	1024.5	264.61	-340.19	118.57	-52.861	22.074	1012.8	-158.7
808	4.04	154.97	1561.1	33.054	9	2014	4	-5.0297	741.32	373.31	155.38	1559.2	130.75	-42.872	797.66	388.11	16.195	1345.4	249.73	-16.544	904.08	366.49	140.44	942.03	233.23	56.447	1065	-247.02	9.2238	552.15	-131.33	-84.998	329.04	-22.625	-29.867	1199.9	328.39	-179.59	36.7	-6.8863	49.658	1347.1	-109.31	-39.811	488.39	-119.86	-199.86	25.937	-93.001	36.681	631.19	-157.04	87.468	621.92	-125.89	67.574	1206.3	-192.77	186.82	642.92	231.22	-183.8	189.69	-36.131	-135.93	267.58	-92.687	-137.19	261.38	-30.347	-141.7	28.175	-6.3562	175.17	1209.5	82.465	-15.126	1552.4	139.73	105.6	1322.9	73.877	131.06	628.79	248.68	172.96	457.6	216.61	-271.7	128.27	-95.765	132.5	958.55	-127.74	136.47	950.29	52.744	148.09	545.07	231.23	223.62	886.45	-271.55	-115.26	1281.3	162.48	67.417	707.12	-181.49	170.36	991.8	-243.82	-58.832	1391.7	76.167	-110.46	949.14	96.537	3.8211	1543.5	5.2717	350.82	40.095	115.35	164.42	26.661	156.18	341.17	28.768	204.86	-104.03	958.14	-34.643	126	710.18	269.37	229.18	277.33	199.82	391.95	41.624	119.83	49.276	841.1	-73.385	14.612	951.97	41.845	136.47	950.29	52.744	54.673	829.86	172.08	-107.25	953.64	30.947	216.45	949.6	50.953	137.24	1030.2	56.384	138.23	946.64	132.64	277.97	865.67	-254.06	215.96	64.247	201.13	245.28	903.78	-201.83	3.4821	800.12	329.25	-74.692	1035.9	353.77	244.59	358.69	133.71	237.39	174.48	122.16	240.99	266.59	127.93	233.51	75.284	115.94	-257.92	129.41	-11.447	-91.732	1059.7	46.236	-102.25	1024.8	266.08	-336.44	123.22	-52.668	25.623	1014.3	-156.4
